<svg xmlns="http://www.w3.org/2000/svg" viewBox="0 0 64 62"><defs><style>.cls-1{fill:#363f40;}</style></defs><title>Ресурс 5</title><g id="Слой_2" data-name="Слой 2"><g id="icons"><path class="cls-1" d="M2,62H0V52c0-7.14,6.24-10.14,11.68-12L20,36.35V32h2v5a1,1,0,0,1-.59.91l-9,4C5.08,44.36,2,47.37,2,52Z"/><rect class="cls-1" x="10" y="42" width="2" height="20"/><path class="cls-1" d="M27,35c-7.79,0-10.83-7.54-11-12.58l-.72-.71A1,1,0,0,1,15,21V19h2v1.59l.71.7A1,1,0,0,1,18,22c0,4.25,2.44,11,9,11s9-6.75,9-11a1,1,0,0,1,.29-.71l.71-.7V19h2v2a1,1,0,0,1-.29.71l-.72.71C37.83,27.46,34.79,35,27,35Z"/><path class="cls-1" d="M27,45a1,1,0,0,1-.76-.35l-6-7,1.52-1.3L27,42.46l5.24-6.11,1.52,1.3-6,7A1,1,0,0,1,27,45Z"/><path class="cls-1" d="M27,19c-7.27,0-15-2.1-15-6h2c0,1.63,5.06,4,13,4s13-2.37,13-4h2C42,16.9,34.27,19,27,19Z"/><path class="cls-1" d="M40,13H38a11,11,0,0,0-22,0H14a13,13,0,0,1,26,0Z"/><path class="cls-1" d="M30,5H28a4,4,0,0,1,4-4V3A2,2,0,0,0,30,5Z"/><rect class="cls-1" x="28" y="5" width="2" height="8"/><path class="cls-1" d="M26,5H24a2,2,0,0,0-2-2V1A4,4,0,0,1,26,5Z"/><rect class="cls-1" x="24" y="5" width="2" height="8"/><rect class="cls-1" x="16" y="39" width="2" height="23"/><path class="cls-1" d="M38,62H36V39.62l-3.45-1.73A1,1,0,0,1,32,37V32h2v4.38l3.45,1.73A1,1,0,0,1,38,39Z"/><polygon class="cls-1" points="64 62 40 62 40 29 44 29 44 31 42 31 42 60 62 60 62 31 60 31 60 29 64 29 64 62"/><path class="cls-1" d="M58,33H46V27H58ZM48,31h8V29H48Z"/><rect class="cls-1" x="48" y="35" width="12" height="2"/><rect class="cls-1" x="44" y="35" width="2" height="2"/><rect class="cls-1" x="48" y="39" width="12" height="2"/><rect class="cls-1" x="44" y="39" width="2" height="2"/><rect class="cls-1" x="48" y="43" width="12" height="2"/><rect class="cls-1" x="44" y="43" width="2" height="2"/><rect class="cls-1" x="48" y="47" width="12" height="2"/><rect class="cls-1" x="44" y="47" width="2" height="2"/><rect class="cls-1" x="55" y="56" width="5" height="2"/><rect class="cls-1" x="26" y="47" width="2" height="2"/><rect class="cls-1" x="26" y="51" width="2" height="2"/><rect class="cls-1" x="26" y="55" width="2" height="2"/></g></g></svg>