<svg xmlns="http://www.w3.org/2000/svg" viewBox="0 0 64 56"><defs><style>.cls-1{fill:#363f40;}</style></defs><title>Ресурс 1</title><g id="Слой_2" data-name="Слой 2"><g id="icons"><path class="cls-1" d="M57,44H0V6H48V8H2V42H57a5,5,0,1,0-5-5H50V7A7,7,0,0,1,64,7V37A7,7,0,0,1,57,44Zm0-14a7,7,0,0,1,5,2.11V7A5,5,0,0,0,52,7V32.11A7,7,0,0,1,57,30Z"/><rect class="cls-1" x="8" y="11" width="2" height="28"/><rect class="cls-1" x="13" y="11" width="2" height="28"/><rect class="cls-1" x="23" y="11" width="2" height="28"/><rect class="cls-1" x="18" y="11" width="2" height="28"/><rect class="cls-1" x="33" y="11" width="2" height="28"/><rect class="cls-1" x="28" y="11" width="2" height="28"/><rect class="cls-1" x="38" y="11" width="2" height="28"/><rect class="cls-1" x="43" y="11" width="2" height="28"/><rect class="cls-1" x="5" y="19" width="43" height="2"/><rect class="cls-1" x="5" y="14" width="43" height="2"/><rect class="cls-1" x="5" y="24" width="43" height="2"/><rect class="cls-1" x="5" y="29" width="43" height="2"/><rect class="cls-1" x="5" y="34" width="43" height="2"/><path class="cls-1" d="M64,56H0V46H64ZM2,54H62V48H2Z"/><rect class="cls-1" x="4" y="52" width="2" height="3"/><rect class="cls-1" x="8" y="52" width="2" height="3"/><rect class="cls-1" x="12" y="52" width="2" height="3"/><rect class="cls-1" x="16" y="52" width="2" height="3"/><rect class="cls-1" x="20" y="52" width="2" height="3"/><rect class="cls-1" x="24" y="52" width="2" height="3"/><rect class="cls-1" x="28" y="52" width="2" height="3"/><rect class="cls-1" x="32" y="52" width="2" height="3"/><rect class="cls-1" x="36" y="52" width="2" height="3"/><rect class="cls-1" x="40" y="52" width="2" height="3"/><rect class="cls-1" x="44" y="52" width="2" height="3"/><rect class="cls-1" x="48" y="52" width="2" height="3"/><rect class="cls-1" x="52" y="52" width="2" height="3"/><rect class="cls-1" x="58" y="50" width="2" height="2"/></g></g></svg>