<svg xmlns="http://www.w3.org/2000/svg" viewBox="0 0 62 56"><defs><style>.cls-1{fill:#363f40;}</style></defs><title>Ресурс 4</title><g id="Слой_2" data-name="Слой 2"><g id="icons"><path class="cls-1" d="M50,52H0V46H50ZM2,50H48V48H2Z"/><polygon class="cls-1" points="2 44 0 44 0 12 19 12 19 14 2 14 2 44"/><polygon class="cls-1" points="50 44 48 44 48 2 20 2 20 44 18 44 18 0 50 0 50 44"/><rect class="cls-1" x="5" y="18" width="2" height="2"/><rect class="cls-1" x="9" y="18" width="2" height="2"/><rect class="cls-1" x="13" y="18" width="2" height="2"/><rect class="cls-1" x="5" y="22" width="2" height="2"/><rect class="cls-1" x="9" y="22" width="2" height="2"/><rect class="cls-1" x="13" y="22" width="2" height="2"/><rect class="cls-1" x="5" y="26" width="2" height="2"/><rect class="cls-1" x="9" y="26" width="2" height="2"/><rect class="cls-1" x="13" y="26" width="2" height="2"/><rect class="cls-1" x="5" y="30" width="2" height="2"/><rect class="cls-1" x="9" y="30" width="2" height="2"/><rect class="cls-1" x="13" y="30" width="2" height="2"/><rect class="cls-1" x="5" y="34" width="2" height="2"/><rect class="cls-1" x="9" y="34" width="2" height="2"/><rect class="cls-1" x="13" y="34" width="2" height="2"/><rect class="cls-1" x="5" y="38" width="2" height="2"/><rect class="cls-1" x="9" y="38" width="2" height="2"/><rect class="cls-1" x="13" y="38" width="2" height="2"/><path class="cls-1" d="M29,12H23V6h6Zm-4-2h2V8H25Z"/><path class="cls-1" d="M37,12H31V6h6Zm-4-2h2V8H33Z"/><path class="cls-1" d="M45,12H39V6h6Zm-4-2h2V8H41Z"/><path class="cls-1" d="M29,20H23V14h6Zm-4-2h2V16H25Z"/><path class="cls-1" d="M37,20H31V14h6Zm-4-2h2V16H33Z"/><path class="cls-1" d="M45,20H39V14h6Zm-4-2h2V16H41Z"/><path class="cls-1" d="M29,28H23V22h6Zm-4-2h2V24H25Z"/><path class="cls-1" d="M37,28H31V22h6Zm-4-2h2V24H33Z"/><path class="cls-1" d="M45,28H39V22h6Zm-4-2h2V24H41Z"/><path class="cls-1" d="M29,36H23V30h6Zm-4-2h2V32H25Z"/><path class="cls-1" d="M37,36H31V30h6Zm-4-2h2V32H33Z"/><path class="cls-1" d="M45,36H39V30h6Zm-4-2h2V32H41Z"/><polygon class="cls-1" points="45 44 43 44 43 40 25 40 25 44 23 44 23 38 45 38 45 44"/><rect class="cls-1" x="35" y="39" width="2" height="5"/><path class="cls-1" d="M62,52H52V0H62Zm-8-2h6V2H54Z"/><rect class="cls-1" x="53" y="12" width="3" height="2"/><rect class="cls-1" x="53" y="16" width="3" height="2"/><rect class="cls-1" x="53" y="20" width="3" height="2"/><rect class="cls-1" x="53" y="24" width="3" height="2"/><rect class="cls-1" x="53" y="28" width="3" height="2"/><rect class="cls-1" x="53" y="32" width="3" height="2"/><rect class="cls-1" x="53" y="36" width="3" height="2"/><rect class="cls-1" x="53" y="40" width="3" height="2"/><rect class="cls-1" x="53" y="44" width="3" height="2"/><rect class="cls-1" x="56" y="4" width="2" height="2"/><rect class="cls-1" y="54" width="2" height="2"/><rect class="cls-1" x="4" y="54" width="2" height="2"/><rect class="cls-1" x="8" y="54" width="2" height="2"/><rect class="cls-1" x="12" y="54" width="2" height="2"/><rect class="cls-1" x="16" y="54" width="2" height="2"/><rect class="cls-1" x="20" y="54" width="2" height="2"/><rect class="cls-1" x="24" y="54" width="2" height="2"/><rect class="cls-1" x="28" y="54" width="2" height="2"/><rect class="cls-1" x="32" y="54" width="2" height="2"/><rect class="cls-1" x="36" y="54" width="2" height="2"/><rect class="cls-1" x="40" y="54" width="2" height="2"/><rect class="cls-1" x="44" y="54" width="2" height="2"/><rect class="cls-1" x="48" y="54" width="2" height="2"/></g></g></svg>