<svg xmlns="http://www.w3.org/2000/svg" viewBox="0 0 64 64"><defs><style>.cls-1{fill:#363f40;}</style></defs><title>Ресурс 2</title><g id="Слой_2" data-name="Слой 2"><g id="icons"><polygon class="cls-1" points="51 11 49 11 49 6.41 44.59 2 19.41 2 15 6.41 15 11 13 11 13 5.59 18.59 0 45.41 0 51 5.59 51 11"/><polygon class="cls-1" points="47 9 45 9 45 8.41 42.59 6 21.41 6 19 8.41 19 9 17 9 17 7.59 20.59 4 43.41 4 47 7.59 47 9"/><polygon class="cls-1" points="60 48 4 48 4 25 6 25 6 46 58 46 58 25 60 25 60 48"/><path class="cls-1" d="M59,26H56V24h3a3,3,0,0,0,3-3V12H2v9a3,3,0,0,0,3,3H8v2H5a5,5,0,0,1-5-5V10H64V21A5,5,0,0,1,59,26Z"/><rect class="cls-1" x="24" y="24" width="16" height="2"/><path class="cls-1" d="M21,32H11V25.41l-2-2V20H23v3.41l-2,2Zm-8-2h6V24.59l2-2V22H11v.59l2,2Z"/><rect class="cls-1" x="15" y="26" width="2" height="5"/><path class="cls-1" d="M53,32H43V25.41l-2-2V20H55v3.41l-2,2Zm-8-2h6V24.59l2-2V22H43v.59l2,2Z"/><rect class="cls-1" x="47" y="26" width="2" height="5"/><rect class="cls-1" x="27" y="20" width="2" height="2"/><rect class="cls-1" x="31" y="20" width="2" height="2"/><rect class="cls-1" x="35" y="20" width="2" height="2"/><rect class="cls-1" x="15" y="59" width="34" height="2"/><rect class="cls-1" x="15" y="53" width="34" height="2"/><path class="cls-1" d="M10,64H4V58h6V56H4V50h6a7,7,0,0,1,0,14ZM6,62h4a5,5,0,0,0,0-10H6v2h6v6H6Z"/><path class="cls-1" d="M60,64H54a7,7,0,0,1,0-14h6v6H54v2h6ZM54,52a5,5,0,0,0,0,10h4V60H52V54h6V52Z"/></g></g></svg>