<svg width="60" height="60" viewBox="0 0 60 60" fill="none" xmlns="http://www.w3.org/2000/svg">
<path d="M30 0C21.8524 0 20.7779 0.0883594 17.5781 0.234375C14.3849 0.380156 12.2208 0.781758 10.3125 1.52344C8.33977 2.29008 6.70687 3.37125 5.03906 5.03906C3.37125 6.70687 2.29008 8.33977 1.52344 10.3125C0.781758 12.2208 0.380156 14.3849 0.234375 17.5781C0.0883594 20.7779 0 21.8524 0 30C0 38.1476 0.0883594 39.2221 0.234375 42.4219C0.380156 45.6151 0.781758 47.7792 1.52344 49.6875C2.29008 51.6602 3.37125 53.2931 5.03906 54.9609C6.70687 56.6287 8.33977 57.7099 10.3125 58.4766C12.2208 59.2182 14.3849 59.6198 17.5781 59.7656C20.7779 59.9116 21.8524 60 30 60C38.1476 60 39.2221 59.9116 42.4219 59.7656C45.6151 59.6199 47.7792 59.2182 49.6875 58.4766C51.6602 57.7099 53.2931 56.6287 54.9609 54.9609C56.6287 53.2931 57.7099 51.6602 58.4766 49.6875C59.2182 47.7792 59.6198 45.6151 59.7656 42.4219C59.9116 39.2221 60 38.1476 60 30C60 21.8524 59.9116 20.7779 59.7656 17.5781C59.6198 14.3849 59.2182 12.2208 58.4766 10.3125C57.7099 8.33977 56.6287 6.70687 54.9609 5.03906C53.2931 3.37125 51.6602 2.29008 49.6875 1.52344C47.7792 0.781758 45.6151 0.380156 42.4219 0.234375C39.2221 0.0883594 38.1476 0 30 0ZM30 5.39062C38.0104 5.39062 38.9068 5.48076 42.0703 5.625C44.9952 5.75848 46.6382 6.15176 47.6953 6.5625C49.0956 7.10672 50.044 7.85648 51.0938 8.90625C52.1435 9.95602 52.8933 10.9044 53.4375 12.3047C53.8482 13.3618 54.2415 15.0048 54.375 17.9297C54.5193 21.0932 54.6094 21.9896 54.6094 30C54.6094 38.0104 54.5191 38.9068 54.375 42.0703C54.2415 44.9952 53.8482 46.6382 53.4375 47.6953C52.8933 49.0956 52.1435 50.044 51.0938 51.0938C50.044 52.1435 49.0956 52.8933 47.6953 53.4375C46.6382 53.8482 44.9952 54.2415 42.0703 54.375C38.9073 54.5193 38.0109 54.6094 30 54.6094C21.9891 54.6094 21.0927 54.5191 17.9297 54.375C15.0048 54.2415 13.3618 53.8482 12.3047 53.4375C10.9044 52.8933 9.95602 52.1435 8.90625 51.0938C7.85648 50.044 7.10672 49.0956 6.5625 47.6953C6.15176 46.6382 5.75848 44.9952 5.625 42.0703C5.48074 38.9068 5.39062 38.0104 5.39062 30C5.39062 21.9896 5.48076 21.0932 5.625 17.9297C5.75848 15.0048 6.15176 13.3618 6.5625 12.3047C7.10672 10.9044 7.85648 9.95602 8.90625 8.90625C9.95602 7.85648 10.9044 7.10672 12.3047 6.5625C13.3618 6.15176 15.0048 5.75848 17.9297 5.625C21.0932 5.48074 21.9896 5.39062 30 5.39062ZM46.0547 10.4297C44.0665 10.4297 42.4219 11.9571 42.4219 13.9453C42.4219 15.9335 44.0665 17.5781 46.0547 17.5781C48.0429 17.5781 49.5703 15.9335 49.5703 13.9453C49.5703 11.9571 48.0429 10.4297 46.0547 10.4297ZM30 14.6484C21.4918 14.6484 14.6484 21.4918 14.6484 30C14.6484 38.5082 21.4918 45.3516 30 45.3516C38.5082 45.3516 45.3516 38.5082 45.3516 30C45.3516 21.4918 38.5082 14.6484 30 14.6484ZM30 20.0391C35.5228 20.0391 39.9609 24.4771 39.9609 30C39.9609 35.5228 35.5228 39.9609 30 39.9609C24.4772 39.9609 20.0391 35.5228 20.0391 30C20.0391 24.4771 24.4772 20.0391 30 20.0391Z" fill="black"/>
</svg>
