<svg width="50" height="45" viewBox="0 0 50 45" fill="none" xmlns="http://www.w3.org/2000/svg">
<rect x="12.5" y="24.5" width="37" height="8" fill="url(#paint0_linear)" stroke="#272727"/>
<rect x="12.5" y="34.5" width="37" height="3" fill="url(#paint1_linear)" stroke="#272727"/>
<rect x="2.5" y="5.5" width="3" height="39" fill="url(#paint2_linear)" stroke="#272727"/>
<rect x="44.5" y="5.5" width="3" height="16" fill="url(#paint3_linear)" stroke="#272727"/>
<rect x="14.5" y="39.5" width="3" height="5" fill="url(#paint4_linear)" stroke="#272727"/>
<rect x="44.5" y="39.5" width="3" height="5" fill="url(#paint5_linear)" stroke="#272727"/>
<rect x="0.5" y="0.5" width="49" height="3" fill="url(#paint6_linear)" stroke="#272727"/>
<rect x="7.5" y="12.5" width="35" height="3" fill="url(#paint7_linear)" stroke="#272727"/>
<defs>
<linearGradient id="paint0_linear" x1="56.3333" y1="23.1" x2="46.2249" y2="47.799" gradientUnits="userSpaceOnUse">
<stop stop-color="#5F5F5F"/>
<stop offset="1" stop-color="#5F5F5F" stop-opacity="0"/>
</linearGradient>
<linearGradient id="paint1_linear" x1="56.3333" y1="33.6" x2="54.0768" y2="46.0056" gradientUnits="userSpaceOnUse">
<stop stop-color="#5F5F5F"/>
<stop offset="1" stop-color="#5F5F5F" stop-opacity="0"/>
</linearGradient>
<linearGradient id="paint2_linear" x1="5.77778" y1="-2" x2="-16.7118" y2="7.60341" gradientUnits="userSpaceOnUse">
<stop stop-color="#5F5F5F"/>
<stop offset="1" stop-color="#C4C4C4" stop-opacity="0"/>
</linearGradient>
<linearGradient id="paint3_linear" x1="47.7778" y1="2.025" x2="34.5455" y2="15.3201" gradientUnits="userSpaceOnUse">
<stop stop-color="#5F5F5F"/>
<stop offset="1" stop-color="#C4C4C4" stop-opacity="0"/>
</linearGradient>
<linearGradient id="paint4_linear" x1="17.7778" y1="37.95" x2="14.8571" y2="46.2646" gradientUnits="userSpaceOnUse">
<stop stop-color="#5F5F5F"/>
<stop offset="1" stop-color="#C4C4C4" stop-opacity="0"/>
</linearGradient>
<linearGradient id="paint5_linear" x1="47.7778" y1="37.95" x2="44.8571" y2="46.2646" gradientUnits="userSpaceOnUse">
<stop stop-color="#5F5F5F"/>
<stop offset="1" stop-color="#C4C4C4" stop-opacity="0"/>
</linearGradient>
<linearGradient id="paint6_linear" x1="26" y1="-3.5" x2="31.5" y2="6" gradientUnits="userSpaceOnUse">
<stop stop-color="#5F5F5F"/>
<stop offset="1" stop-color="#5F5F5F" stop-opacity="0"/>
</linearGradient>
<linearGradient id="paint7_linear" x1="25.72" y1="8.5" x2="31.9143" y2="16.2034" gradientUnits="userSpaceOnUse">
<stop stop-color="#5F5F5F"/>
<stop offset="1" stop-color="#5F5F5F" stop-opacity="0"/>
</linearGradient>
</defs>
</svg>
