<svg width="40" height="44" viewBox="0 0 40 44" fill="none" xmlns="http://www.w3.org/2000/svg">
<path d="M20 0L20 0.5H20.0002H20.0006H20.0025H20.0098H20.0385L20.1488 0.5L20.5519 0.500002L21.8617 0.500012L24.4692 0.500091C24.5217 0.601411 24.5785 0.736778 24.6465 0.900841L24.655 0.921343C24.7208 1.08032 24.7984 1.26753 24.8793 1.41948C24.9216 1.49877 24.9758 1.59017 25.0436 1.67077C25.1018 1.74005 25.2266 1.87083 25.4248 1.91424C30.2018 2.96069 33.5 5.58917 35.6147 9.09323C37.7374 12.6106 38.6798 17.033 38.6798 21.6572C38.6798 22.3515 38.9191 22.7454 39.1155 23.0686C39.131 23.0941 39.1462 23.1191 39.161 23.1439C39.3344 23.4333 39.5 23.7378 39.5 24.4211C39.5 24.7608 39.4391 24.9632 39.3644 25.0968C39.2905 25.229 39.1791 25.3372 39.0008 25.4504C38.8453 25.549 38.669 25.6341 38.4451 25.7422C38.3933 25.7673 38.3389 25.7935 38.2817 25.8214C37.9904 25.9636 37.6546 26.1362 37.3077 26.3808C32.9922 29.4231 28.7223 29.5 19.9999 29.5C11.2777 29.5 7.00782 29.423 2.69234 26.3808C2.32789 26.1238 1.9751 25.9742 1.67146 25.8626C1.56626 25.824 1.47439 25.7921 1.39192 25.7634C1.2169 25.7026 1.08422 25.6565 0.956315 25.592C0.800278 25.5134 0.708593 25.4319 0.642212 25.3049C0.56727 25.1616 0.5 24.9122 0.5 24.4535C0.5 23.987 0.548038 23.6869 0.608 23.482C0.665847 23.2844 0.740013 23.1568 0.82302 23.0352C0.838207 23.0129 0.856736 22.987 0.877452 22.9581C0.955717 22.8487 1.0652 22.6957 1.14362 22.5305C1.25667 22.2923 1.32006 22.0185 1.32006 21.6572C1.32006 17.033 2.26243 12.6106 4.38518 9.09323C6.49991 5.58917 9.79809 2.96069 14.5751 1.91424C14.7732 1.87084 14.898 1.74007 14.9563 1.67081C15.024 1.59022 15.0783 1.49883 15.1206 1.41954C15.2015 1.26759 15.2791 1.08036 15.345 0.921384L15.3535 0.90091C15.4215 0.736816 15.4784 0.601423 15.5309 0.500091L18.1383 0.500012L19.4481 0.500002L19.8512 0.5L19.9615 0.5H19.9902H19.9975H19.9994H19.9998H20L20 0Z" fill="url(#paint0_linear)" stroke="#272727"/>
<path d="M5 23L35 23" stroke="#272727" stroke-linecap="round"/>
<path d="M19.5 10C19.5 10.2761 19.7239 10.5 20 10.5C20.2761 10.5 20.5 10.2761 20.5 10H19.5ZM15.5 8.18182C15.5 8.45796 15.7239 8.68182 16 8.68182C16.2761 8.68182 16.5 8.45796 16.5 8.18182H15.5ZM23.5 8.18182C23.5 8.45796 23.7239 8.68182 24 8.68182C24.2761 8.68182 24.5 8.45796 24.5 8.18182H23.5ZM19.5 0V10H20.5V0H19.5ZM15.5 0V8.18182H16.5V0H15.5ZM23.5 0V8.18182H24.5V0H23.5Z" fill="#272727"/>
<path d="M3.5 33.8667C3.5 33.0382 4.17157 32.3667 5 32.3667H35C35.8284 32.3667 36.5 33.0382 36.5 33.8667V41.2615C36.5 42.0514 35.8874 42.706 35.0992 42.7582L25.37 43.403C24.7108 43.4467 24.1006 43.0539 23.8674 42.4357L21.7826 36.9091L21.7376 36.7524C21.2 34.8818 18.5013 35.0581 18.2015 36.9682L16.8691 42.2666C16.6929 42.9672 16.0423 43.4427 15.3213 43.3979L4.90698 42.7509C4.1162 42.7017 3.5 42.046 3.5 41.2537V33.8667Z" fill="url(#paint1_linear)" stroke="#272727"/>
<defs>
<linearGradient id="paint0_linear" x1="-1" y1="-1" x2="36" y2="32.5" gradientUnits="userSpaceOnUse">
<stop stop-color="#5F5F5F"/>
<stop offset="1" stop-color="#5F5F5F" stop-opacity="0"/>
</linearGradient>
<linearGradient id="paint1_linear" x1="29.5" y1="28.5" x2="25" y2="46" gradientUnits="userSpaceOnUse">
<stop stop-color="#5F5F5F"/>
<stop offset="1" stop-color="#5F5F5F" stop-opacity="0"/>
</linearGradient>
</defs>
</svg>
