<svg width="60" height="60" viewBox="0 0 60 60" fill="none" xmlns="http://www.w3.org/2000/svg">
<g clip-path="url(#clip0)">
<path d="M0 28.75C0 15.1971 0 8.42068 4.21034 4.21034C8.42068 0 15.1971 0 28.75 0H31.25C44.8029 0 51.5794 0 55.7896 4.21034C60 8.42068 60 15.1971 60 28.75V31.25C60 44.8029 60 51.5794 55.7896 55.7896C51.5794 60 44.8029 60 31.25 60H28.75C15.1971 60 8.42068 60 4.21034 55.7896C0 51.5794 0 44.8029 0 31.25L0 28.75Z" fill="black"/>
<path fill-rule="evenodd" clip-rule="evenodd" d="M16.2511 18.75H11.8751C10.6248 18.75 10.3748 19.3385 10.3748 19.9873C10.3748 21.1461 11.8583 26.8935 17.2825 34.4949C20.8986 39.686 25.9934 42.5 30.6295 42.5C33.4111 42.5 33.7553 41.875 33.7553 40.7985V36.875C33.7553 35.625 34.0188 35.3755 34.8995 35.3755C35.5486 35.3755 36.6613 35.7 39.2575 38.2029C42.2246 41.1693 42.7138 42.5 44.3826 42.5H48.7586C50.009 42.5 50.6341 41.875 50.2735 40.6416C49.8789 39.4124 48.4623 37.6287 46.5825 35.5146C45.5625 34.3095 44.0326 33.0117 43.569 32.3627C42.92 31.5285 43.1054 31.1576 43.569 30.4161C43.569 30.4161 48.9005 22.9074 49.4569 20.3583C49.735 19.4311 49.4569 18.75 48.1335 18.75H43.7575C42.6449 18.75 42.1319 19.3385 41.8536 19.9873C41.8536 19.9873 39.6284 25.4102 36.4759 28.9329C35.4559 29.9525 34.9923 30.277 34.4359 30.277C34.1578 30.277 33.7551 29.9525 33.7551 29.0256V20.3583C33.7551 19.2458 33.4323 18.75 32.5049 18.75H25.6283C24.933 18.75 24.5148 19.2662 24.5148 19.7556C24.5148 20.8101 26.091 21.0534 26.2535 24.0197V30.4625C26.2535 31.875 25.9983 32.1311 25.442 32.1311C23.9585 32.1311 20.3499 26.6839 18.2096 20.4509C17.7903 19.2394 17.3695 18.75 16.2511 18.75Z" fill="white"/>
</g>
<defs>
<clipPath id="clip0">
<rect width="60" height="60" fill="white"/>
</clipPath>
</defs>
</svg>
