<svg width="60" height="60" viewBox="0 0 60 60" fill="none" xmlns="http://www.w3.org/2000/svg">
<path d="M43.7907 60.0001C52.7429 60.0001 60.0001 52.7429 60.0001 43.7907C60.0001 34.8385 52.7429 27.5813 43.7907 27.5813C34.8385 27.5813 27.5813 34.8385 27.5813 43.7907C27.5813 52.7429 34.8385 60.0001 43.7907 60.0001Z" fill="#97CF26"/>
<path d="M13.3212 51.3356C17.4882 51.3356 20.8662 47.9576 20.8662 43.7905C20.8662 39.6234 17.4882 36.2454 13.3212 36.2454C9.15415 36.2454 5.77612 39.6234 5.77612 43.7905C5.77612 47.9576 9.15415 51.3356 13.3212 51.3356Z" fill="#A169F7"/>
<path d="M43.7906 23.7546C49.5528 23.7546 54.2239 19.0835 54.2239 13.3214C54.2239 7.5593 49.5528 2.88818 43.7906 2.88818C38.0285 2.88818 33.3574 7.5593 33.3574 13.3214C33.3574 19.0835 38.0285 23.7546 43.7906 23.7546Z" fill="#FF6163"/>
<path d="M13.3213 26.6426C20.6785 26.6426 26.6426 20.6785 26.6426 13.3213C26.6426 5.96415 20.6785 0 13.3213 0C5.96415 0 0 5.96415 0 13.3213C0 20.6785 5.96415 26.6426 13.3213 26.6426Z" fill="#00AAFF"/>
</svg>
